<svg width="14" height="15" viewBox="0 0 14 15" fill="none" xmlns="http://www.w3.org/2000/svg">
<path d="M13.8086 12.1133C14.0547 12.3867 14.0547 12.7969 13.7812 13.043L13.0156 13.8086C12.7695 14.082 12.3594 14.082 12.0859 13.8086L9.37891 11.1016C9.24219 10.9648 9.1875 10.8008 9.1875 10.6367V10.1719C8.20312 10.9375 7 11.375 5.6875 11.375C2.54297 11.375 0 8.83203 0 5.6875C0 2.57031 2.54297 0 5.6875 0C8.80469 0 11.375 2.57031 11.375 5.6875C11.375 7.02734 10.9102 8.23047 10.1719 9.1875H10.6094C10.7734 9.1875 10.9375 9.26953 11.0742 9.37891L13.8086 12.1133ZM5.6875 9.1875C7.60156 9.1875 9.1875 7.62891 9.1875 5.6875C9.1875 3.77344 7.60156 2.1875 5.6875 2.1875C3.74609 2.1875 2.1875 3.77344 2.1875 5.6875C2.1875 7.62891 3.74609 9.1875 5.6875 9.1875Z" fill="white"/>
</svg>
